<?xml version="1.0" encoding="UTF-8" standalone="no"?>
<!DOCTYPE svg PUBLIC "-//W3C//DTD SVG 1.1//EN" "http://www.w3.org/Graphics/SVG/1.1/DTD/svg11.dtd">
<svg width="100%" height="100%" viewBox="0 0 1024 256" version="1.1" xmlns="http://www.w3.org/2000/svg" xmlns:xlink="http://www.w3.org/1999/xlink" xml:space="preserve" xmlns:serif="http://www.serif.com/" style="fill-rule:evenodd;clip-rule:evenodd;stroke-linejoin:round;stroke-miterlimit:2;">
    <g transform="matrix(0.840108,0,0,0.840108,-61.520325,47.157182)">
        <g transform="matrix(163.470968,0,0,163.470968,372,142.5548)">
            <path d="M0.141,0.008C0.12,0.008 0.104,0.002 0.093,-0.009C0.083,-0.021 0.077,-0.037 0.077,-0.058L0.077,-0.64C0.077,-0.661 0.083,-0.678 0.094,-0.689C0.105,-0.7 0.121,-0.705 0.142,-0.705L0.383,-0.705C0.46,-0.705 0.52,-0.686 0.562,-0.647C0.604,-0.608 0.625,-0.554 0.625,-0.485C0.625,-0.416 0.604,-0.361 0.562,-0.323C0.52,-0.284 0.46,-0.264 0.383,-0.264L0.205,-0.264L0.205,-0.058C0.205,-0.037 0.2,-0.021 0.189,-0.009C0.178,0.002 0.162,0.008 0.141,0.008ZM0.205,-0.365L0.363,-0.365C0.408,-0.365 0.443,-0.375 0.466,-0.396C0.489,-0.416 0.501,-0.446 0.501,-0.485C0.501,-0.524 0.489,-0.554 0.466,-0.574C0.443,-0.594 0.408,-0.604 0.363,-0.604L0.205,-0.604L0.205,-0.365Z" style="fill-rule:nonzero;"/>
        </g>
        <g transform="matrix(163.470968,0,0,163.470968,478.583071,142.5548)">
            <path d="M0.37,0.01C0.321,0.01 0.278,0.004 0.241,-0.009C0.204,-0.022 0.173,-0.041 0.148,-0.066C0.123,-0.091 0.104,-0.122 0.091,-0.159C0.078,-0.196 0.072,-0.24 0.072,-0.289L0.072,-0.648C0.072,-0.67 0.077,-0.686 0.088,-0.697C0.099,-0.708 0.115,-0.713 0.136,-0.713C0.157,-0.713 0.173,-0.708 0.183,-0.697C0.195,-0.686 0.2,-0.67 0.2,-0.648L0.2,-0.29C0.2,-0.227 0.214,-0.179 0.243,-0.147C0.273,-0.116 0.315,-0.1 0.37,-0.1C0.425,-0.1 0.467,-0.116 0.496,-0.147C0.525,-0.179 0.539,-0.227 0.539,-0.29L0.539,-0.648C0.539,-0.67 0.545,-0.686 0.555,-0.697C0.567,-0.708 0.582,-0.713 0.603,-0.713C0.623,-0.713 0.638,-0.708 0.649,-0.697C0.66,-0.686 0.666,-0.67 0.666,-0.648L0.666,-0.289C0.666,-0.224 0.655,-0.169 0.633,-0.124C0.61,-0.079 0.577,-0.046 0.533,-0.024C0.489,-0.001 0.435,0.01 0.37,0.01Z" style="fill-rule:nonzero;"/>
        </g>
        <g transform="matrix(163.470968,0,0,163.470968,599.224645,142.5548)">
            <path d="M0.137,0.008C0.118,0.008 0.103,0.003 0.092,-0.008C0.082,-0.019 0.077,-0.034 0.077,-0.054L0.077,-0.649C0.077,-0.67 0.082,-0.686 0.092,-0.697C0.103,-0.708 0.116,-0.713 0.133,-0.713C0.148,-0.713 0.16,-0.71 0.168,-0.705C0.175,-0.699 0.184,-0.689 0.195,-0.676L0.578,-0.179L0.552,-0.179L0.552,-0.652C0.552,-0.671 0.557,-0.686 0.568,-0.697C0.578,-0.708 0.593,-0.713 0.612,-0.713C0.631,-0.713 0.646,-0.708 0.656,-0.697C0.666,-0.686 0.671,-0.671 0.671,-0.652L0.671,-0.052C0.671,-0.033 0.666,-0.019 0.657,-0.008C0.648,0.003 0.635,0.008 0.619,0.008C0.604,0.008 0.592,0.005 0.583,-0.001C0.574,-0.007 0.564,-0.017 0.553,-0.03L0.171,-0.527L0.196,-0.527L0.196,-0.054C0.196,-0.034 0.191,-0.019 0.181,-0.008C0.171,0.003 0.156,0.008 0.137,0.008Z" style="fill-rule:nonzero;"/>
        </g>
        <g transform="matrix(163.470968,0,0,163.470968,721.500929,142.5548)">
            <path d="M0.141,0.008C0.12,0.008 0.104,0.002 0.093,-0.009C0.083,-0.021 0.077,-0.037 0.077,-0.058L0.077,-0.648C0.077,-0.669 0.083,-0.686 0.093,-0.697C0.104,-0.708 0.12,-0.713 0.141,-0.713C0.162,-0.713 0.177,-0.708 0.189,-0.697C0.2,-0.686 0.205,-0.669 0.205,-0.648L0.205,-0.393L0.207,-0.393L0.494,-0.681C0.505,-0.692 0.515,-0.7 0.526,-0.705C0.537,-0.71 0.549,-0.713 0.562,-0.713C0.581,-0.713 0.595,-0.708 0.604,-0.698C0.612,-0.688 0.615,-0.676 0.614,-0.663C0.612,-0.65 0.605,-0.637 0.594,-0.626L0.302,-0.337L0.303,-0.395L0.608,-0.085C0.622,-0.072 0.629,-0.058 0.63,-0.043C0.631,-0.028 0.626,-0.016 0.617,-0.007C0.607,0.003 0.593,0.008 0.574,0.008C0.558,0.008 0.545,0.005 0.535,-0.002C0.526,-0.009 0.515,-0.018 0.502,-0.031L0.207,-0.326L0.205,-0.326L0.205,-0.058C0.205,-0.037 0.2,-0.021 0.189,-0.009C0.178,0.002 0.162,0.008 0.141,0.008Z" style="fill-rule:nonzero;"/>
        </g>
        <g transform="matrix(163.470968,0,0,163.470968,824.487639,142.5548)">
            <path d="M0.311,0.008C0.29,0.008 0.275,0.002 0.264,-0.009C0.253,-0.021 0.247,-0.037 0.247,-0.058L0.247,-0.598L0.052,-0.598C0.035,-0.598 0.021,-0.603 0.011,-0.613C0.002,-0.622 -0.003,-0.635 -0.003,-0.652C-0.003,-0.669 0.002,-0.683 0.011,-0.692C0.021,-0.7 0.035,-0.705 0.052,-0.705L0.57,-0.705C0.587,-0.705 0.601,-0.7 0.611,-0.692C0.62,-0.683 0.625,-0.669 0.625,-0.652C0.625,-0.635 0.62,-0.622 0.611,-0.613C0.601,-0.603 0.587,-0.598 0.57,-0.598L0.375,-0.598L0.375,-0.058C0.375,-0.037 0.37,-0.021 0.359,-0.009C0.348,0.002 0.332,0.008 0.311,0.008Z" style="fill-rule:nonzero;"/>
        </g>
        <g transform="matrix(163.470968,0,0,163.470968,926.00311,142.5548)">
            <path d="M0.37,0.01C0.321,0.01 0.278,0.004 0.241,-0.009C0.204,-0.022 0.173,-0.041 0.148,-0.066C0.123,-0.091 0.104,-0.122 0.091,-0.159C0.078,-0.196 0.072,-0.24 0.072,-0.289L0.072,-0.648C0.072,-0.67 0.077,-0.686 0.088,-0.697C0.099,-0.708 0.115,-0.713 0.136,-0.713C0.157,-0.713 0.173,-0.708 0.183,-0.697C0.195,-0.686 0.2,-0.67 0.2,-0.648L0.2,-0.29C0.2,-0.227 0.214,-0.179 0.243,-0.147C0.273,-0.116 0.315,-0.1 0.37,-0.1C0.425,-0.1 0.467,-0.116 0.496,-0.147C0.525,-0.179 0.539,-0.227 0.539,-0.29L0.539,-0.648C0.539,-0.67 0.545,-0.686 0.555,-0.697C0.567,-0.708 0.582,-0.713 0.603,-0.713C0.623,-0.713 0.638,-0.708 0.649,-0.697C0.66,-0.686 0.666,-0.67 0.666,-0.648L0.666,-0.289C0.666,-0.224 0.655,-0.169 0.633,-0.124C0.61,-0.079 0.577,-0.046 0.533,-0.024C0.489,-0.001 0.435,0.01 0.37,0.01Z" style="fill-rule:nonzero;"/>
        </g>
        <g transform="matrix(163.470968,0,0,163.470968,1045.827329,142.5548)">
            <path d="M0.084,0.008C0.068,0.008 0.055,0.004 0.045,-0.003C0.036,-0.01 0.03,-0.02 0.028,-0.033C0.026,-0.045 0.028,-0.059 0.035,-0.074L0.299,-0.659C0.308,-0.678 0.318,-0.692 0.331,-0.701C0.343,-0.709 0.357,-0.713 0.373,-0.713C0.388,-0.713 0.402,-0.709 0.415,-0.701C0.427,-0.692 0.437,-0.678 0.446,-0.659L0.711,-0.074C0.718,-0.059 0.721,-0.045 0.719,-0.032C0.717,-0.019 0.711,-0.009 0.702,-0.003C0.693,0.004 0.68,0.008 0.665,0.008C0.646,0.008 0.632,0.004 0.622,-0.005C0.611,-0.014 0.602,-0.028 0.594,-0.047L0.529,-0.198L0.583,-0.163L0.161,-0.163L0.215,-0.198L0.151,-0.047C0.142,-0.028 0.133,-0.014 0.124,-0.005C0.115,0.004 0.101,0.008 0.084,0.008ZM0.371,-0.566L0.231,-0.233L0.205,-0.265L0.539,-0.265L0.514,-0.233L0.373,-0.566L0.371,-0.566Z" style="fill-rule:nonzero;"/>
        </g>
        <g transform="matrix(163.470968,0,0,163.470968,1167.449729,142.5548)">
            <path d="M0.142,-0C0.121,-0 0.105,-0.006 0.094,-0.018C0.083,-0.029 0.077,-0.045 0.077,-0.066L0.077,-0.643C0.077,-0.664 0.083,-0.68 0.093,-0.692C0.104,-0.703 0.12,-0.708 0.141,-0.708C0.162,-0.708 0.177,-0.703 0.189,-0.692C0.2,-0.68 0.205,-0.664 0.205,-0.643L0.205,-0.109L0.495,-0.109C0.513,-0.109 0.527,-0.104 0.536,-0.095C0.546,-0.086 0.551,-0.072 0.551,-0.055C0.551,-0.038 0.546,-0.024 0.536,-0.015C0.527,-0.005 0.513,-0 0.495,-0L0.142,-0Z" style="fill-rule:nonzero;"/>
        </g>
        <g transform="matrix(163.470968,0,0,163.470968,1259.320413,142.5548)">
        </g>
    </g>
    <g transform="matrix(1.123288,0,0,1.123288,-22,-20.835616)">
        <circle cx="182.5" cy="132.5" r="36.5" style="fill:rgb(16,185,129);"/>
    </g>
    <g transform="matrix(1.123288,0,0,1.123288,-134.080271,-20.835616)">
        <path d="M213.22,112.362C217.421,118.308 219,124.673 219,132.5C219,152.645 202.645,169 182.5,169C162.355,169 146,152.645 146,132.5C146,112.355 162.355,96 182.5,96C190.367,96 197.656,98.494 203.619,102.734C202.777,103.45 201.411,104.873 199.881,106.642C194.915,103.296 188.934,101.341 182.5,101.341C165.303,101.341 151.341,115.303 151.341,132.5C151.341,149.697 165.303,163.659 182.5,163.659C199.697,163.659 213.659,149.697 213.659,132.5C213.659,126.1 212.615,121.038 209.3,116.087C211.073,114.563 211.609,114.091 213.22,112.362Z" style="fill:rgb(16,185,129);"/>
    </g>
    <path d="M108,88C111.251,85.367 113.141,90.681 111.638,92.004C100.115,102.149 73.763,137.431 66.382,150.074C65.12,152.237 62.809,150.74 62.118,150.556C61.99,150.523 61.918,150.499 61.918,150.499C61.918,150.499 47.584,130.62 46,127C44.74,124.119 45.915,117.045 52,119C58.085,120.955 64,132 64,132C64,132 99.725,94.702 108,88Z" style="fill:rgb(16,185,129);"/>
</svg>
